<!DOCTYPE svg PUBLIC "-//W3C//DTD SVG 1.1//EN" "http://www.w3.org/Graphics/SVG/1.1/DTD/svg11.dtd">
<!-- Uploaded to: SVG Repo, www.svgrepo.com, Transformed by: SVG Repo Mixer Tools -->
<svg fill="#00ff40" width="256px" height="256px" viewBox="-203.2 -203.2 1253.06 1253.06" style="shape-rendering:geometricPrecision; text-rendering:geometricPrecision; image-rendering:optimizeQuality; fill-rule:evenodd; clip-rule:evenodd" version="1.1" xml:space="preserve" xmlns="http://www.w3.org/2000/svg" xmlns:xlink="http://www.w3.org/1999/xlink" stroke="#00ff40" stroke-width="0.008466600000000001">
<g id="SVGRepo_bgCarrier" stroke-width="0">
<path transform="translate(-203.2, -203.2), scale(78.31625)" fill="#26B68B" d="M9.166.33a2.25 2.25 0 00-2.332 0l-5.25 3.182A2.25 2.25 0 00.5 5.436v5.128a2.25 2.25 0 001.084 1.924l5.25 3.182a2.25 2.25 0 002.332 0l5.25-3.182a2.25 2.25 0 001.084-1.924V5.436a2.25 2.25 0 00-1.084-1.924L9.166.33z" strokewidth="0"/>
</g>
<g id="SVGRepo_tracerCarrier" stroke-linecap="round" stroke-linejoin="round" stroke="#CCCCCC" stroke-width="13.54656"/>
<g id="SVGRepo_iconCarrier"> <defs> <style type="text/css">  .fil0 {fill:black;fill-rule:nonzero}  </style> </defs> <g id="Layer_x0020_1"> <path class="fil0" d="M94.63 9.1l483.79 0c4.99,0.04 9.19,1.59 12.96,4.56l171.53 121.21c5.9,3.65 9.84,10.18 9.84,17.63l0 664.35c0,11.44 -9.28,20.71 -20.71,20.71l-657.41 0c-11.44,0 -20.72,-9.27 -20.72,-20.71l0 -787.04c0,-11.44 9.28,-20.71 20.72,-20.71zm137.12 519.85c-27.24,0 -27.24,-41.42 0,-41.42l383.16 0c27.25,0 27.25,41.42 0,41.42l-383.16 0zm0 205.05c-27.24,0 -27.24,-41.42 0,-41.42l383.16 0c27.25,0 27.25,41.42 0,41.42l-383.16 0zm0 -102.52c-27.24,0 -27.24,-41.43 0,-41.43l383.16 0c27.25,0 27.25,41.43 0,41.43l-383.16 0zm131.55 -328.81c30.97,23.15 49.31,59.43 49.31,98.21 0,11.44 -9.27,20.71 -20.71,20.71l-203.63 0c-11.44,0 -20.72,-9.27 -20.72,-20.71 0,-38.78 18.35,-75.06 49.31,-98.21 -10.99,-15.01 -17.49,-33.53 -17.49,-53.56 0,-50.09 40.62,-90.71 90.71,-90.71 50.1,0 90.71,40.62 90.71,90.71 0,20.03 -6.49,38.55 -17.49,53.56zm-113.46 27.76c-18.9,10.8 -32.7,28.69 -38.21,49.74l156.91 0c-5.51,-21.05 -19.31,-38.94 -38.22,-49.74 -12.12,6.01 -25.79,9.39 -40.24,9.39 -14.45,0 -28.11,-3.38 -40.24,-9.39zm40.24 -130.6c-27.22,0 -49.28,22.06 -49.28,49.28 0,27.23 22.06,49.29 49.28,49.29 27.22,0 49.29,-22.06 49.29,-49.29 0,-27.22 -22.06,-49.28 -49.29,-49.28zm441.25 -26.62l-152.91 0c-11.43,0 -20.71,-9.28 -20.71,-20.71l0 -101.98 -442.37 0 0 745.62 615.99 0 0 -622.93zm-132.2 -103.45l0 62.03 87.78 0 -87.78 -62.03z"/> </g> </g>
</svg>